<?xml version="1.0" encoding="utf-8"?>
<!-- Generator: Adobe Illustrator 19.0.0, SVG Export Plug-In . SVG Version: 6.00 Build 0)  -->
<svg version="1.1" id="Capa_1" xmlns="http://www.w3.org/2000/svg" xmlns:xlink="http://www.w3.org/1999/xlink" x="0px" y="0px"
	 viewBox="-129 -41 490 490" style="enable-background:new -129 -41 490 490;" xml:space="preserve">
<style type="text/css">
	.st0{fill:#391E63;}
</style>
<g>
	<path class="st0" d="M95.8,264.1h180.3c4,0,7.6-2.4,9.2-6l74.9-173.4c1.3-3.1,1-6.6-0.8-9.5c-1.8-2.8-5-4.5-8.4-4.5H0.4L-20.3,7.5
		c-1.3-4.1-5.2-6.9-9.5-6.9H-119c-5.5,0-10,4.5-10,10s4.5,10,10,10h82l77.4,236.6c1.3,4.1,5.2,6.9,9.5,6.9h23.4l-28.5,54.7
		c-3.6-1-7.5-1.5-11.4-1.5c-24.8,0-45.1,20.2-45.1,45.1c0,24.8,20.2,45.1,45.1,45.1c21.4,0,39.4-15,43.9-35.1h176.7
		c4.6,20,22.5,35.1,43.9,35.1c24.8,0,45.1-20.2,45.1-45.1c0-24.8-20.2-45.1-45.1-45.1c-21.4,0-39.4,15-43.9,35.1H77.3
		c-2.2-9.6-7.5-18.1-14.8-24.3l32.8-63C95.5,264.7,95.7,264.4,95.8,264.1z M137.7,90.7h53.9l-28.8,66.7h-53.9L137.7,90.7z
		 M87.2,157.4H33.3l28.8-66.7H116L87.2,157.4z M184.6,157.4l28.8-66.7h53.9l-28.8,66.7H184.6z M229.8,177.4L201,244.1h-53.9
		l28.8-66.7H229.8z M154.2,177.4l-28.8,66.7H71.5l28.8-66.7H154.2z M269.5,244.1h-46.7l28.8-66.7h46.7L269.5,244.1z M307,157.4
		h-46.7l28.8-66.7h46.7L307,157.4z M40.3,90.7l-19,44l-14.4-44H40.3z M35.3,177.4h43.2l-24.6,56.9L35.3,177.4z M33.4,387.4
		c-13.8,0-25.1-11.2-25.1-25.1c0-13.8,11.2-25.1,25.1-25.1c13.8,0,25,11.2,25,25.1C58.4,376.2,47.2,387.4,33.4,387.4z M297.9,337.3
		c13.8,0,25.1,11.2,25.1,25.1c0,13.8-11.2,25.1-25.1,25.1c-13.8,0-25-11.2-25-25.1C272.8,348.5,284,337.3,297.9,337.3z"/>
</g>
</svg>
