<?xml version="1.0" encoding="utf-8"?>
<!-- Generator: Adobe Illustrator 19.0.0, SVG Export Plug-In . SVG Version: 6.00 Build 0)  -->
<svg version="1.1" id="Capa_1" xmlns="http://www.w3.org/2000/svg" xmlns:xlink="http://www.w3.org/1999/xlink" x="0px" y="0px"
	 viewBox="-129 -41 490 490" style="enable-background:new -129 -41 490 490;" xml:space="preserve">
<style type="text/css">
	.st0{fill:#8C1923;}
	.st1{fill:#349742;}
	.st2{fill:#2C3689;}
</style>
<g>
	<path class="st0" d="M101.5-9.9C40.3-9.9-17.4,14-60.7,57.3c-43.3,43.3-67.2,101-67.2,162.2s23.9,118.9,67.2,162.2
		S40.3,449,101.5,449c5.5,0,10-4.5,10-10V0.1C111.5-5.4,107.1-9.9,101.5-9.9z M91.5,428.8c-110.9-5.2-199.5-97.1-199.5-209.2
		c0-112.1,88.6-204,199.5-209.2V428.8z"/>
	<path class="st1" d="M157.5,169.2c1.7,1.3,3.8,1.9,5.9,1.9c1,0,2.1-0.2,3.1-0.5l182.7-59.4c2.5-0.8,4.6-2.6,5.8-5
		c1.2-2.4,1.4-5.1,0.6-7.6C328,13.8,252.6-41,163.4-41c-5.5,0-10,4.5-10,10v192.1C153.4,164.3,154.9,167.3,157.5,169.2z M173.4-20.7
		C246.1-17,307.2,27.4,333.3,95.4l-159.9,51.9L173.4-20.7L173.4-20.7z"/>
	<path class="st2" d="M349.7,174.7c-1.7-5.3-7.3-8.1-12.6-6.4l-186.4,60.6c-4.1,1.3-6.9,5.2-6.9,9.5v196c0,5.5,4.5,10,10,10
		c101.6,0,158.6-63.5,183.6-112.5C362.3,282.8,366.7,227,349.7,174.7z M319.5,322.8c-22.6,44.3-73,94.8-155.7,101.3V245.6
		l169.7-55.2C345.4,234.9,340.6,281.5,319.5,322.8z"/>
</g>
</svg>
