<?xml version="1.0" encoding="utf-8"?>
<!-- Generator: Adobe Illustrator 19.0.0, SVG Export Plug-In . SVG Version: 6.00 Build 0)  -->
<svg version="1.1" id="Capa_1" xmlns="http://www.w3.org/2000/svg" xmlns:xlink="http://www.w3.org/1999/xlink" x="0px" y="0px"
	 viewBox="-226 57.2 295.8 295.8" style="enable-background:new -226 57.2 295.8 295.8;" xml:space="preserve">
<style type="text/css">
	.st0{fill:#FFC845;}
</style>
<g>
	<g>
		<path d="M-78.1,57.2c-81.8,0-147.9,66.1-147.9,147.9S-159.9,353-78.1,353S69.8,286.9,69.8,205.1S3.7,57.2-78.1,57.2z M-78.1,335.6
			c-71.3,0-130.5-59.2-130.5-130.5S-149.4,74.6-78.1,74.6S52.4,133.7,52.4,205.1S-6.7,335.6-78.1,335.6z"/>
		<path class="st0" d="M-41.5,173.8c0,5.2,3.5,8.7,8.7,8.7c5.2,0,8.7-3.5,8.7-8.7c0-20.3-19.8-36.4-45.2-39.4v-7.6
			c0-5.2-3.5-8.7-8.7-8.7c-5.2,0-8.7,3.5-8.7,8.7v7.6c-25.5,3-45.2,19-45.2,39.4s19.8,36.4,45.2,39.4v45.1
			c-15.4-2.6-27.8-11.5-27.8-21.8c0-5.2-3.5-8.7-8.7-8.7c-5.2,0-8.7,3.5-8.7,8.7c0,20.3,19.8,36.4,45.2,39.4v7.6
			c0,5.2,3.5,8.7,8.7,8.7c5.2,0,8.7-3.5,8.7-8.7v-7.6c25.5-3,45.2-19,45.2-39.4s-19.8-36.4-45.2-39.4v-45.1
			C-54,154.5-41.5,163.5-41.5,173.8L-41.5,173.8z M-114.6,173.8c0-10.3,12.5-19.3,27.8-21.8v43.6
			C-102.2,193-114.6,184.1-114.6,173.8z M-41.5,236.4c0,10.3-12.5,19.3-27.8,21.8v-43.6C-54,217.1-41.5,226.1-41.5,236.4z"/>
	</g>
</g>
</svg>
